<svg width="28" height="28" viewBox="0 0 28 28" fill="none" xmlns="http://www.w3.org/2000/svg">
<path d="M13.9865 0.666656C6.6265 0.666656 0.666504 6.63999 0.666504 14C0.666504 21.36 6.6265 27.3333 13.9865 27.3333C21.3598 27.3333 27.3332 21.36 27.3332 14C27.3332 6.63999 21.3598 0.666656 13.9865 0.666656ZM13.9998 24.6667C8.1065 24.6667 3.33317 19.8933 3.33317 14C3.33317 8.10666 8.1065 3.33332 13.9998 3.33332C19.8932 3.33332 24.6665 8.10666 24.6665 14C24.6665 19.8933 19.8932 24.6667 13.9998 24.6667Z" fill="#291132"/>
<path d="M14.6665 7.33334H12.6665V15.3333L19.6665 19.5333L20.6665 17.8933L14.6665 14.3333V7.33334Z" fill="#291132"/>
</svg>
