<svg width="32" height="22" viewBox="0 0 32 22" fill="none" xmlns="http://www.w3.org/2000/svg">
<path d="M25.8 8.38665C25.3521 6.11694 24.1301 4.07312 22.3428 2.60431C20.5554 1.13549 18.3135 0.33279 16 0.333313C12.1467 0.333313 8.8 2.51998 7.13333 5.71998C5.17365 5.93176 3.36134 6.86026 2.04465 8.32708C0.727961 9.79389 -0.000228936 11.6955 5.39903e-08 13.6666C5.39903e-08 18.08 3.58667 21.6666 8 21.6666H25.3333C29.0133 21.6666 32 18.68 32 15C32 11.48 29.2667 8.62665 25.8 8.38665ZM25.3333 19H8C5.05333 19 2.66667 16.6133 2.66667 13.6666C2.66667 10.72 5.05333 8.33331 8 8.33331H8.94667C9.82667 5.25331 12.64 2.99998 16 2.99998C20.0533 2.99998 23.3333 6.27998 23.3333 10.3333V11H25.3333C27.5467 11 29.3333 12.7866 29.3333 15C29.3333 17.2133 27.5467 19 25.3333 19Z" fill="#291132"/>
</svg>
