<svg width="22" height="26" viewBox="0 0 22 26" fill="none" xmlns="http://www.w3.org/2000/svg">
<path d="M19.8125 4.0125C18.3 1.425 16.2375 0 14 0H8C5.7625 0 3.7 1.425 2.1875 4.0125C0.675 6.6 0 9.625 0 13C0 16.375 0.775 19.575 2.1875 21.9875C3.6 24.4 5.7625 26 8 26H14C16.2375 26 18.3 24.575 19.8125 21.9875C21.325 19.4 22 16.375 22 13C22 9.625 21.225 6.425 19.8125 4.0125ZM19.975 12H15.975C15.875 9.85 15.4625 7.7875 14.7625 6H18.5875C19.35 7.675 19.8625 9.75 19.975 12ZM17.4 4H13.8125C13.3892 3.27909 12.8861 2.60819 12.3125 2H14C15.25 2 16.425 2.75 17.4 4ZM2 13C2 7.0375 4.75 2 8 2C11.25 2 14 7.0375 14 13C14 18.9625 11.25 24 8 24C4.75 24 2 18.9625 2 13ZM14 24H12.3125C12.8861 23.3918 13.3892 22.7209 13.8125 22H17.4C16.425 23.25 15.25 24 14 24ZM18.5875 20H14.7625C15.4625 18.2125 15.875 16.15 15.975 14H19.975C19.8625 16.25 19.35 18.325 18.5875 20Z" fill="#291132"/>
</svg>
