<svg width="28" height="26" viewBox="0 0 28 26" fill="none" xmlns="http://www.w3.org/2000/svg">
<path d="M24.6665 0H6.92384C6.38132 0.0018012 5.85213 0.168212 5.40621 0.47723C4.9603 0.786249 4.61868 1.22332 4.42651 1.73067L0.750506 11.532C0.694692 11.6817 0.666239 11.8402 0.666506 12V14.6667C0.666506 16.1373 1.86251 17.3333 3.33317 17.3333H10.8158L9.31984 21.8227C9.18646 22.2235 9.15003 22.6503 9.21354 23.0679C9.27704 23.4856 9.43868 23.8822 9.68517 24.2253C10.1865 24.9187 10.9945 25.3333 11.8505 25.3333H13.9998C14.3958 25.3333 14.7705 25.1573 15.0252 24.8533L21.2918 17.3333H24.6665C26.1372 17.3333 27.3332 16.1373 27.3332 14.6667V2.66667C27.3332 1.196 26.1372 0 24.6665 0ZM13.3745 22.6667H11.8478L13.9305 16.4213C13.9972 16.221 14.0154 16.0077 13.9836 15.7989C13.9517 15.5902 13.8708 15.392 13.7474 15.2207C13.6239 15.0493 13.4616 14.9098 13.2737 14.8135C13.0858 14.7171 12.8777 14.6668 12.6665 14.6667H3.33317V12.2413L6.92384 2.66667H19.3332V15.5173L13.3745 22.6667ZM21.9998 14.6667V2.66667H24.6665L24.6678 14.6667H21.9998Z" fill="black"/>
</svg>
