<svg width="28" height="26" viewBox="0 0 28 26" fill="none" xmlns="http://www.w3.org/2000/svg">
<path d="M24.6665 8.6665H17.1838L18.6812 4.17717C18.9505 3.3665 18.8145 2.46784 18.3145 1.7745C17.8145 1.08117 17.0038 0.666504 16.1492 0.666504H13.9998C13.6038 0.666504 13.2292 0.842504 12.9745 1.1465L6.70784 8.6665H3.33317C1.8625 8.6665 0.666504 9.8625 0.666504 11.3332V23.3332C0.666504 24.8038 1.8625 25.9998 3.33317 25.9998H21.0758C21.6184 25.998 22.1476 25.8316 22.5935 25.5226C23.0394 25.2136 23.381 24.7765 23.5732 24.2692L27.2492 14.4678C27.305 14.3181 27.3334 14.1596 27.3332 13.9998V11.3332C27.3332 9.8625 26.1372 8.6665 24.6665 8.6665ZM3.33317 11.3332H5.99984V23.3332H3.33317V11.3332ZM24.6665 13.7585L21.0758 23.3332H8.6665V10.4825L14.6238 3.33317H16.1518L14.0692 9.57717C14.0016 9.77759 13.9827 9.99124 14.0142 10.2004C14.0456 10.4096 14.1265 10.6082 14.2501 10.7799C14.3736 10.9516 14.5363 11.0913 14.7247 11.1875C14.9131 11.2837 15.1217 11.3337 15.3332 11.3332H24.6665V13.7585Z" fill="black"/>
</svg>
