<svg width="14" height="15" viewBox="0 0 14 15" fill="none" xmlns="http://www.w3.org/2000/svg">
<path d="M10.9999 6.71331C10.8231 6.71331 10.6535 6.78355 10.5285 6.90857C10.4035 7.0336 10.3333 7.20317 10.3333 7.37998V12.1666C10.3333 12.3435 10.263 12.513 10.138 12.6381C10.013 12.7631 9.8434 12.8333 9.66658 12.8333H2.33325C2.15644 12.8333 1.98687 12.7631 1.86185 12.6381C1.73682 12.513 1.66659 12.3435 1.66659 12.1666V4.83331C1.66659 4.6565 1.73682 4.48693 1.86185 4.36191C1.98687 4.23688 2.15644 4.16665 2.33325 4.16665H7.11992C7.29673 4.16665 7.4663 4.09641 7.59132 3.97138C7.71635 3.84636 7.78658 3.67679 7.78658 3.49998C7.78658 3.32317 7.71635 3.1536 7.59132 3.02858C7.4663 2.90355 7.29673 2.83331 7.11992 2.83331H2.33325C1.80282 2.83331 1.29411 3.04403 0.919038 3.4191C0.543966 3.79417 0.333252 4.30288 0.333252 4.83331V12.1666C0.333252 12.6971 0.543966 13.2058 0.919038 13.5809C1.29411 13.9559 1.80282 14.1666 2.33325 14.1666H9.66658C10.197 14.1666 10.7057 13.9559 11.0808 13.5809C11.4559 13.2058 11.6666 12.6971 11.6666 12.1666V7.37998C11.6666 7.20317 11.5963 7.0336 11.4713 6.90857C11.3463 6.78355 11.1767 6.71331 10.9999 6.71331ZM13.6133 1.24665C13.5456 1.08375 13.4162 0.954296 13.2533 0.886646C13.1731 0.852486 13.087 0.834366 12.9999 0.833313H8.99992C8.82311 0.833313 8.65354 0.903551 8.52851 1.02858C8.40349 1.1536 8.33325 1.32317 8.33325 1.49998C8.33325 1.67679 8.40349 1.84636 8.52851 1.97138C8.65354 2.09641 8.82311 2.16665 8.99992 2.16665H11.3933L4.52659 9.02665C4.4641 9.08862 4.4145 9.16236 4.38066 9.24359C4.34681 9.32483 4.32939 9.41197 4.32939 9.49998C4.32939 9.58799 4.34681 9.67512 4.38066 9.75636C4.4145 9.8376 4.4641 9.91134 4.52659 9.97331C4.58856 10.0358 4.66229 10.0854 4.74353 10.1192C4.82477 10.1531 4.91191 10.1705 4.99992 10.1705C5.08793 10.1705 5.17506 10.1531 5.2563 10.1192C5.33754 10.0854 5.41128 10.0358 5.47325 9.97331L12.3333 3.10665V5.49998C12.3333 5.67679 12.4035 5.84636 12.5285 5.97138C12.6535 6.09641 12.8231 6.16665 12.9999 6.16665C13.1767 6.16665 13.3463 6.09641 13.4713 5.97138C13.5963 5.84636 13.6666 5.67679 13.6666 5.49998V1.49998C13.6655 1.41286 13.6474 1.32679 13.6133 1.24665Z" fill="#F3F3F0"/>
</svg>
