<svg width="16" height="18" viewBox="0 0 16 18" fill="none" xmlns="http://www.w3.org/2000/svg">
    <path fill-rule="evenodd" clip-rule="evenodd" d="M3 5.66667C3 2.90525 5.23858 0.666672 8 0.666672C10.7614 0.666672 13 2.90525 13 5.66667V6.62527C13.2355 6.67688 13.4616 6.75203 13.68 6.86332C14.3072 7.18289 14.8171 7.69283 15.1367 8.32004C15.3428 8.72448 15.4249 9.15507 15.4632 9.62348C15.5 10.0745 15.5 10.6281 15.5 11.2989V12.5344C15.5 13.2052 15.5 13.7589 15.4632 14.2099C15.4249 14.6783 15.3428 15.1089 15.1367 15.5133C14.8171 16.1405 14.3072 16.6504 13.68 16.97C13.2755 17.1761 12.8449 17.2582 12.3765 17.2965C11.9255 17.3334 11.3719 17.3333 10.7011 17.3333H5.2989C4.6281 17.3333 4.07447 17.3334 3.62348 17.2965C3.15506 17.2582 2.72448 17.1761 2.32003 16.97C1.69283 16.6504 1.18289 16.1405 0.863312 15.5133C0.657237 15.1089 0.5751 14.6783 0.536829 14.2099C0.499981 13.7589 0.49999 13.2052 0.5 12.5344V11.2989C0.49999 10.6281 0.499981 10.0745 0.536829 9.62348C0.5751 9.15507 0.657237 8.72448 0.863312 8.32004C1.18289 7.69283 1.69283 7.18289 2.32003 6.86332C2.53845 6.75203 2.76449 6.67688 3 6.62527V5.66667ZM4.66667 6.50136C4.86476 6.5 5.07533 6.5 5.29892 6.5H10.7011C10.9247 6.5 11.1352 6.5 11.3333 6.50136V5.66667C11.3333 3.82572 9.84095 2.33334 8 2.33334C6.15905 2.33334 4.66667 3.82572 4.66667 5.66667V6.50136ZM3.7592 8.19796C3.39385 8.22781 3.20702 8.28192 3.07668 8.34833C2.76308 8.50812 2.50811 8.76308 2.34832 9.07669C2.28192 9.20702 2.22781 9.39386 2.19796 9.7592C2.16732 10.1343 2.16667 10.6195 2.16667 11.3333V12.5C2.16667 13.2138 2.16732 13.6991 2.19796 14.0741C2.22781 14.4395 2.28192 14.6263 2.34832 14.7567C2.50811 15.0703 2.76308 15.3252 3.07668 15.485C3.20702 15.5514 3.39385 15.6055 3.7592 15.6354C4.13427 15.666 4.61952 15.6667 5.33333 15.6667H10.6667C11.3805 15.6667 11.8657 15.666 12.2408 15.6354C12.6061 15.6055 12.793 15.5514 12.9233 15.485C13.2369 15.3252 13.4919 15.0703 13.6517 14.7567C13.7181 14.6263 13.7722 14.4395 13.802 14.0741C13.8327 13.6991 13.8333 13.2138 13.8333 12.5V11.3333C13.8333 10.6195 13.8327 10.1343 13.802 9.7592C13.7722 9.39386 13.7181 9.20702 13.6517 9.07669C13.4919 8.76308 13.2369 8.50812 12.9233 8.34833C12.793 8.28192 12.6061 8.22781 12.2408 8.19796C11.8657 8.16732 11.3805 8.16667 10.6667 8.16667H5.33333C4.61952 8.16667 4.13427 8.16732 3.7592 8.19796ZM8 10.25C8.46024 10.25 8.83333 10.6231 8.83333 11.0833V12.75C8.83333 13.2102 8.46024 13.5833 8 13.5833C7.53976 13.5833 7.16667 13.2102 7.16667 12.75V11.0833C7.16667 10.6231 7.53976 10.25 8 10.25Z" fill="#001A34"/>
</svg>