<svg width="22" height="32" viewBox="0 0 22 32" fill="none" xmlns="http://www.w3.org/2000/svg">
<path d="M22 12C22.0017 10.1461 21.5349 8.32182 20.6428 6.69665C19.7507 5.07149 18.4624 3.69815 16.8974 2.70422C15.3325 1.71028 13.5417 1.12801 11.6915 1.01147C9.84121 0.894937 7.99153 1.24793 6.31424 2.03765C4.63695 2.82738 3.18646 4.02821 2.09753 5.52861C1.00859 7.02901 0.316534 8.78029 0.0856453 10.6198C-0.145244 12.4592 0.0925258 14.3272 0.776866 16.0502C1.46121 17.7732 2.56992 19.2952 4 20.475V30C3.99898 30.1706 4.0422 30.3386 4.12545 30.4876C4.2087 30.6366 4.32913 30.7614 4.475 30.85C4.6197 30.941 4.78529 30.9933 4.95598 31.0021C5.12667 31.0108 5.29675 30.9757 5.45 30.9L11 28.1125L16.55 30.9C16.6919 30.9627 16.8449 30.9967 17 31C17.2652 31 17.5196 30.8946 17.7071 30.7071C17.8946 30.5196 18 30.2652 18 30V20.475C19.251 19.4452 20.2585 18.1512 20.9501 16.6859C21.6417 15.2206 22.0002 13.6203 22 12ZM2 12C2 10.22 2.52784 8.47991 3.51677 6.99986C4.5057 5.51982 5.91131 4.36627 7.55585 3.68508C9.20038 3.00389 11.01 2.82566 12.7558 3.17293C14.5016 3.5202 16.1053 4.37736 17.364 5.63603C18.6226 6.89471 19.4798 8.49835 19.8271 10.2442C20.1743 11.99 19.9961 13.7996 19.3149 15.4441C18.6337 17.0887 17.4802 18.4943 16.0001 19.4832C14.5201 20.4722 12.78 21 11 21C8.61407 20.9967 6.3268 20.0474 4.63969 18.3603C2.95258 16.6732 2.00331 14.3859 2 12ZM16 28.3875L11.45 26.1C11.3096 26.0324 11.1558 25.9973 11 25.9973C10.8442 25.9973 10.6904 26.0324 10.55 26.1L6 28.3875V21.8C7.54858 22.5891 9.26195 23.0005 11 23.0005C12.738 23.0005 14.4514 22.5891 16 21.8V28.3875ZM11 19C12.3845 19 13.7378 18.5895 14.889 17.8203C16.0401 17.0511 16.9373 15.9579 17.4672 14.6788C17.997 13.3997 18.1356 11.9922 17.8655 10.6344C17.5954 9.2765 16.9287 8.02922 15.9497 7.05025C14.9708 6.07128 13.7235 5.4046 12.3656 5.1345C11.0078 4.8644 9.6003 5.00303 8.32121 5.53284C7.04213 6.06265 5.94888 6.95986 5.17971 8.111C4.41054 9.26215 4 10.6155 4 12C4 13.8565 4.7375 15.637 6.05025 16.9497C7.36301 18.2625 9.14348 19 11 19ZM11 7C11.9889 7 12.9556 7.29324 13.7779 7.84265C14.6001 8.39206 15.241 9.17295 15.6194 10.0866C15.9978 11.0002 16.0969 12.0055 15.9039 12.9754C15.711 13.9454 15.2348 14.8363 14.5355 15.5355C13.8363 16.2348 12.9454 16.711 11.9755 16.9039C11.0055 17.0968 10.0002 16.9978 9.08658 16.6194C8.17295 16.241 7.39206 15.6001 6.84265 14.7778C6.29324 13.9556 6 12.9889 6 12C6.0033 10.6749 6.53114 9.40508 7.46811 8.46811C8.40508 7.53114 9.67493 7.0033 11 7Z" fill="#291132"/>
</svg>
