<svg width="28" height="22" viewBox="0 0 28 22" fill="none" xmlns="http://www.w3.org/2000/svg">
<path d="M3.33317 0.333344H24.6665C25.3737 0.333344 26.052 0.614295 26.5521 1.11439C27.0522 1.61449 27.3332 2.29277 27.3332 3.00001V19C27.3332 19.7073 27.0522 20.3855 26.5521 20.8856C26.052 21.3857 25.3737 21.6667 24.6665 21.6667H3.33317C2.62593 21.6667 1.94765 21.3857 1.44755 20.8856C0.947455 20.3855 0.666504 19.7073 0.666504 19V3.00001C0.666504 2.29277 0.947455 1.61449 1.44755 1.11439C1.94765 0.614295 2.62593 0.333344 3.33317 0.333344ZM3.33317 3.00001V19H12.6665V3.00001H3.33317ZM24.6665 19V3.00001H23.0132C23.3332 3.72001 23.2665 4.42668 23.2665 4.50668C23.1732 5.40001 22.5465 6.33334 22.3198 6.66668L19.2132 10.0667L23.6398 10.04L23.6532 11.6667L16.7198 11.6267L16.6665 10.2933C16.6665 10.2933 20.7332 5.98668 20.9332 5.60001C21.1198 5.22668 21.8798 3.00001 19.9998 3.00001C18.3598 3.06668 18.5465 4.73334 18.5465 4.73334L16.4932 4.74668C16.4932 4.74668 16.5065 3.86668 16.9998 3.00001H15.3332V19H18.7732L18.7598 17.8533L20.0532 17.84C20.0532 17.84 21.2665 17.6267 21.2798 16.44C21.3332 15.1067 20.1998 15.1067 19.9998 15.1067C19.8265 15.1067 18.5732 15.1733 18.5732 16.2667H16.5465C16.5465 16.2667 16.5998 13.52 19.9998 13.52C23.4665 13.52 23.2798 16.2133 23.2798 16.2133C23.2798 16.2133 23.3332 17.88 21.7998 18.5067L22.4932 19H24.6665ZM9.89317 16.3333H7.89317V8.60001L5.49317 9.34668V7.70668L9.67984 6.21334H9.89317V16.3333Z" fill="#291132"/>
</svg>
