<svg width="20" height="20" viewBox="0 0 20 20" fill="none" xmlns="http://www.w3.org/2000/svg">
<path d="M18.937 5.53C17.227 2.119 13.803 0 10 0C4.486 0 0 4.486 0 10C0 15.514 4.486 20 10 20C13.803 20 17.227 17.881 18.937 14.47C19.0516 14.2415 19.0743 13.9777 19.0005 13.733C18.9266 13.4882 18.7619 13.281 18.54 13.154L13.017 10L18.539 6.847C19 6.583 19.175 6.005 18.937 5.53ZM10.504 9.132C10.3508 9.21929 10.2234 9.34558 10.1348 9.49803C10.0462 9.65048 9.99955 9.82367 9.99955 10C9.99955 10.1763 10.0462 10.3495 10.1348 10.502C10.2234 10.6544 10.3508 10.7807 10.504 10.868L16.677 14.393C15.953 15.5032 14.9629 16.4148 13.7967 17.0448C12.6306 17.6747 11.3254 18.0031 10 18C5.589 18 2 14.411 2 10C2 5.589 5.589 2 10 2C11.3253 1.99688 12.6304 2.32513 13.7965 2.95491C14.9626 3.5847 15.9528 4.49602 16.677 5.606L10.504 9.132Z" fill="#291132"/>
<path d="M9.5 7C10.3284 7 11 6.32843 11 5.5C11 4.67157 10.3284 4 9.5 4C8.67157 4 8 4.67157 8 5.5C8 6.32843 8.67157 7 9.5 7Z" fill="#291132"/>
</svg>
