<svg width="86" height="97" viewBox="0 0 86 97" fill="none" xmlns="http://www.w3.org/2000/svg">
<path d="M16.333 96.5C13.3997 96.5 10.8895 95.4565 8.80234 93.3693C6.71167 91.2787 5.66634 88.7667 5.66634 85.8333V16.5H0.333008V5.83333H26.9997V0.5H58.9997V5.83333H85.6663V16.5H80.333V85.8333C80.333 88.7667 79.2895 91.2787 77.2023 93.3693C75.1117 95.4565 72.5997 96.5 69.6663 96.5H16.333ZM69.6663 16.5H16.333V85.8333H69.6663V16.5ZM26.9997 75.1667H37.6663V27.1667H26.9997V75.1667ZM48.333 75.1667H58.9997V27.1667H48.333V75.1667ZM16.333 16.5V85.8333V16.5Z" fill="white"/>
</svg>
