<svg width="30" height="27" viewBox="0 0 30 27" fill="none" xmlns="http://www.w3.org/2000/svg">
<path d="M2.27779 0.367493C0.0838504 2.53599 -0.304087 4.98562 0.201038 7.7323C0.594163 9.86993 1.58098 12.1577 2.75679 14.4677C3.86541 12.7731 5.3266 10.9162 7.04904 9.56043C5.75529 8.48768 4.65773 7.31724 3.8386 6.03249C2.75798 4.33749 2.1821 2.43187 2.27779 0.367493ZM27.7227 0.367493C27.8183 2.43187 27.2425 4.33749 26.1618 6.03249C25.3427 7.31724 24.2452 8.48768 22.9514 9.56043C24.6738 10.9162 26.135 12.7731 27.2437 14.4677C28.4195 12.1577 29.4063 9.86993 29.7994 7.7323C30.3045 4.98562 29.9166 2.53599 27.7227 0.367555V0.367493ZM15.0002 8.18749C14.4564 8.18749 13.9339 8.3598 13.5627 8.64474V10.0435C13.9815 9.87799 14.4712 9.79249 15.0002 9.79249C15.5293 9.79249 16.019 9.87799 16.4377 10.0434V8.64474C16.0665 8.3598 15.5441 8.18749 15.0002 8.18749ZM12.4377 10.0658C10.5324 10.7894 8.68504 12.2321 7.17735 13.9911C5.1701 16.3329 3.79923 19.2188 3.59285 21.4375H12.4377V10.0658ZM17.5627 10.0658V21.4375H26.4076C26.2013 19.2188 24.8303 16.3329 22.8231 13.9911C21.3154 12.2321 19.468 10.7894 17.5627 10.0658ZM7.96885 10.2839C6.15029 11.6699 4.51954 13.7972 3.3606 15.6281C3.55562 15.9949 3.75243 16.3608 3.95104 16.7257C4.58616 15.5241 5.39404 14.3428 6.3231 13.2589C7.07204 12.3852 7.90366 11.5736 8.79541 10.8742C8.51608 10.6829 8.2405 10.4861 7.96885 10.2839ZM22.0316 10.2839C21.7599 10.4861 21.4844 10.6829 21.205 10.8742C22.0968 11.5736 22.9284 12.3852 23.6774 13.2589C24.6064 14.3428 25.4142 15.5241 26.0494 16.7257C26.2481 16.3601 26.4456 15.9941 26.6399 15.6281C25.4809 13.7972 23.8502 11.6699 22.0316 10.2839ZM15.0002 10.9175C14.524 10.9175 14.0972 11.0212 13.8376 11.151C13.6337 11.2529 13.5812 11.3368 13.5677 11.355C13.5812 11.3731 13.6337 11.457 13.8376 11.5589C14.0972 11.6887 14.5239 11.7925 15.0002 11.7925C15.4765 11.7925 15.9033 11.6887 16.1628 11.5589C16.3667 11.4571 16.4193 11.3732 16.4327 11.355C16.4193 11.3368 16.3667 11.2529 16.1628 11.151C15.9033 11.0212 15.4765 10.9175 15.0002 10.9175ZM16.4327 11.355C16.4364 11.36 16.4377 11.3609 16.4377 11.355C16.4377 11.349 16.4364 11.35 16.4327 11.355ZM13.5677 11.355C13.564 11.35 13.5627 11.349 13.5627 11.355C13.5627 11.3609 13.564 11.36 13.5677 11.355ZM13.5627 12.6665V15.6885C13.9815 15.523 14.4712 15.4375 15.0002 15.4375C15.5293 15.4375 16.019 15.523 16.4377 15.6885V12.6665C16.019 12.832 15.5293 12.9175 15.0002 12.9175C14.4712 12.9175 13.9815 12.832 13.5627 12.6665ZM15.0002 16.5625C14.524 16.5625 14.0972 16.6662 13.8376 16.796C13.6337 16.898 13.5812 16.9818 13.5677 17C13.5812 17.0182 13.6337 17.102 13.8376 17.204C14.0972 17.3337 14.524 17.4375 15.0002 17.4375C15.4765 17.4375 15.9033 17.3337 16.1628 17.204C16.3667 17.102 16.4193 17.0182 16.4327 17C16.4193 16.9818 16.3667 16.898 16.1628 16.796C15.9033 16.6662 15.4765 16.5625 15.0002 16.5625ZM16.4327 17C16.4364 17.005 16.4377 17.006 16.4377 17C16.4377 16.994 16.4364 16.995 16.4327 17ZM13.5677 17C13.564 16.995 13.5627 16.994 13.5627 17C13.5627 17.006 13.564 17.005 13.5677 17ZM13.5627 18.3115V21.1784C13.9815 21.0128 14.4712 20.9274 15.0002 20.9274C15.5293 20.9274 16.019 21.0128 16.4377 21.1784V18.3115C16.019 18.477 15.5293 18.5625 15.0002 18.5625C14.4712 18.5625 13.9815 18.477 13.5627 18.3115ZM15.0002 22.0524C14.524 22.0524 14.0972 22.1561 13.8376 22.2859C13.6337 22.3878 13.5812 22.4717 13.5677 22.4899C13.5812 22.508 13.6337 22.5919 13.8376 22.6939C14.0972 22.8236 14.5239 22.9274 15.0002 22.9274C15.4765 22.9274 15.9033 22.8236 16.1628 22.6939C16.3667 22.5919 16.4193 22.5081 16.4327 22.4899C16.4193 22.4717 16.3667 22.3878 16.1628 22.2859C15.9033 22.1561 15.4765 22.0524 15.0002 22.0524ZM16.4327 22.4899C16.4364 22.4949 16.4377 22.4958 16.4377 22.4899C16.4377 22.4839 16.4364 22.4849 16.4327 22.4899ZM13.5677 22.4899C13.564 22.4849 13.5627 22.4839 13.5627 22.4899C13.5627 22.4958 13.564 22.4949 13.5677 22.4899ZM3.56273 22.5625V24.4375H4.71616C4.54241 24.1611 4.43773 23.8425 4.43773 23.5C4.43773 23.1575 4.54248 22.8389 4.71616 22.5625H3.56273ZM7.00023 22.5625C6.56191 22.5625 6.1756 22.7002 5.92354 22.8893C5.67148 23.0783 5.56273 23.2884 5.56273 23.5C5.56273 23.7116 5.67148 23.9217 5.92354 24.1107C6.1756 24.2997 6.56191 24.4375 7.00023 24.4375C7.43854 24.4375 7.82485 24.2997 8.07691 24.1107C8.32898 23.9217 8.43773 23.7116 8.43773 23.5C8.43773 23.2884 8.32898 23.0783 8.07691 22.8893C7.82485 22.7002 7.43854 22.5625 7.00023 22.5625ZM9.28429 22.5625C9.45804 22.8389 9.56273 23.1575 9.56273 23.5C9.56273 23.8425 9.45798 24.1611 9.28429 24.4375H12.4377V22.5625H9.28429ZM17.5627 22.5625V24.4375H20.7162C20.5424 24.1611 20.4377 23.8425 20.4377 23.5C20.4377 23.1575 20.5425 22.8389 20.7162 22.5625H17.5627ZM23.0002 22.5625C22.5619 22.5625 22.1756 22.7002 21.9235 22.8893C21.6715 23.0783 21.5627 23.2884 21.5627 23.5C21.5627 23.7116 21.6715 23.9217 21.9235 24.1107C22.1756 24.2997 22.5619 24.4375 23.0002 24.4375C23.4385 24.4375 23.8249 24.2997 24.0769 24.1107C24.329 23.9217 24.4377 23.7116 24.4377 23.5C24.4377 23.2884 24.329 23.0783 24.0769 22.8893C23.8249 22.7002 23.4385 22.5625 23.0002 22.5625ZM25.2843 22.5625C25.458 22.8389 25.5627 23.1575 25.5627 23.5C25.5627 23.8425 25.458 24.1611 25.2843 24.4375H26.4377V22.5625H25.2843ZM13.5627 23.8014V24.8297L15.0002 26.9859L16.4377 24.8297V23.8014C16.019 23.9669 15.5293 24.0524 15.0002 24.0524C14.4712 24.0524 13.9815 23.9669 13.5627 23.8014Z" fill="#291132"/>
</svg>
